<svg width="93" height="24" viewBox="0 0 93 24" fill="none" xmlns="http://www.w3.org/2000/svg">
<path d="M45.896 11.9406C45.4046 11.9411 44.9335 12.1308 44.5862 12.4679C44.2389 12.805 44.0438 13.262 44.0438 13.7385V18.2609C44.0438 18.4891 44.0172 18.7054 43.8392 18.7967C43.7654 18.8303 43.6834 18.8433 43.6024 18.8342C43.5214 18.825 43.4446 18.7942 43.3807 18.7451C42.996 18.4553 42.2019 17.86 42.0075 17.7072C41.8636 17.6104 41.7004 17.5437 41.5284 17.5116C41.3565 17.4795 41.1794 17.4826 41.0087 17.5207C40.2914 17.615 39.5668 17.6482 38.8435 17.6199C37.6633 17.6192 36.5015 17.3366 35.4608 16.7971C34.42 16.2575 33.5324 15.4777 32.8764 14.5264C32.2204 13.5752 31.8162 12.4819 31.6996 11.3433C31.5829 10.2046 31.7574 9.05554 32.2076 7.99778C32.6577 6.94001 33.3698 6.00608 34.2807 5.27855C35.1916 4.55102 36.2734 4.05231 37.4303 3.82651C38.5873 3.6007 39.7838 3.65475 40.9141 3.98389C42.0443 4.31303 43.0736 4.90711 43.9108 5.71361C44.0822 5.88569 44.2872 6.02287 44.514 6.11713C44.7407 6.21138 44.9846 6.26082 45.2313 6.26253C45.478 6.26424 45.7226 6.2182 45.9507 6.12711C46.1788 6.03601 46.3859 5.9017 46.5598 5.73202C46.7337 5.56235 46.8709 5.36073 46.9635 5.13898C47.056 4.91723 47.1019 4.6798 47.0986 4.44061C47.0953 4.20142 47.0428 3.96528 46.9442 3.74602C46.8456 3.52675 46.7028 3.32877 46.5243 3.16368C44.9975 1.69756 43.0576 0.702069 40.9487 0.302489C38.8398 -0.097091 36.6561 0.117095 34.6725 0.918094C32.6888 1.71909 30.9938 3.07111 29.8008 4.804C28.6078 6.53689 27.9701 8.57322 27.968 10.6567C27.9593 12.0231 28.2292 13.3777 28.762 14.6426C29.2948 15.9076 30.0801 17.0581 31.0728 18.028C32.0654 18.9978 33.2459 19.768 34.5464 20.2943C35.8469 20.8205 37.2419 21.0925 38.6511 21.0946C39.6476 21.1042 40.6439 21.0585 41.635 20.9577C42.8793 21.9022 44.8972 23.4282 45.1613 23.583C45.2441 23.6383 45.3397 23.673 45.4396 23.684C45.5395 23.6951 45.6407 23.6822 45.7343 23.6465C45.9533 23.5354 45.984 23.2615 45.984 22.9758V19.7908C47.0359 19.1955 47.7502 18.3422 47.7502 17.1119V13.7385C47.7502 13.2616 47.5548 12.8044 47.2071 12.4672C46.8594 12.13 46.3877 11.9406 45.896 11.9406Z" fill="#009EFF"/>
<path d="M72.3084 0.328125C71.8263 0.328125 71.3639 0.516375 71.0228 0.851519C70.6817 1.18666 70.4898 1.64129 70.4893 2.11552V19.1687C70.4812 19.4086 70.5222 19.6476 70.6099 19.8715C70.6977 20.0955 70.8303 20.2997 70.9999 20.4722C71.1695 20.6447 71.3727 20.7819 71.5973 20.8756C71.8219 20.9692 72.0634 21.0175 72.3073 21.0175C72.5513 21.0175 72.7928 20.9692 73.0174 20.8756C73.242 20.7819 73.4452 20.6447 73.6148 20.4722C73.7844 20.2997 73.917 20.0955 74.0048 19.8715C74.0925 19.6476 74.1335 19.4086 74.1254 19.1687V2.11552C74.1249 1.64163 73.9333 1.1873 73.5926 0.852215C73.252 0.517127 72.7901 0.328647 72.3084 0.328125Z" fill="#009EFF"/>
<path d="M22.9666 0.328125C22.4845 0.328125 22.0221 0.516375 21.681 0.851519C21.3399 1.18666 21.148 1.64129 21.1475 2.11552V19.1687C21.1394 19.4086 21.1804 19.6476 21.2681 19.8715C21.3559 20.0955 21.4885 20.2997 21.6581 20.4722C21.8277 20.6447 22.0309 20.7819 22.2555 20.8756C22.4801 20.9692 22.7216 21.0175 22.9656 21.0175C23.2095 21.0175 23.451 20.9692 23.6756 20.8756C23.9002 20.7819 24.1034 20.6447 24.273 20.4722C24.4426 20.2997 24.5753 20.0955 24.663 19.8715C24.7507 19.6476 24.7917 19.4086 24.7836 19.1687V2.11552C24.7831 1.64163 24.5915 1.1873 24.2508 0.852215C23.9102 0.517127 23.4483 0.328647 22.9666 0.328125Z" fill="#009EFF"/>
<path d="M16.9774 0.328125H1.78315C1.30485 0.343586 0.851461 0.539355 0.518734 0.874083C0.186008 1.20881 0 1.65629 0 2.122C0 2.58771 0.186008 3.03518 0.518734 3.36991C0.851461 3.70464 1.30485 3.90041 1.78315 3.91587H7.53387V19.2246C7.53387 19.7001 7.72797 20.1562 8.07348 20.4924C8.41899 20.8286 8.88759 21.0175 9.37621 21.0175C9.86483 21.0175 10.3334 20.8286 10.6789 20.4924C11.0245 20.1562 11.2186 19.7001 11.2186 19.2246V5.17445H9.99846C9.91381 5.17445 9.82999 5.15822 9.75178 5.12669C9.67357 5.09517 9.60251 5.04896 9.54265 4.99071C9.48279 4.93246 9.43531 4.86331 9.40291 4.7872C9.37052 4.71109 9.35385 4.62952 9.35385 4.54714C9.35385 4.46476 9.37052 4.38319 9.40291 4.30708C9.43531 4.23097 9.48279 4.16181 9.54265 4.10356C9.60251 4.04531 9.67357 3.9991 9.75178 3.96758C9.82999 3.93605 9.91381 3.91982 9.99846 3.91982H16.9673C17.2145 3.92782 17.4608 3.88733 17.6916 3.80078C17.9225 3.71423 18.133 3.58337 18.3108 3.41601C18.4886 3.24864 18.63 3.04818 18.7265 2.82656C18.8231 2.60494 18.8729 2.36668 18.8729 2.12596C18.8729 1.88524 18.8231 1.64697 18.7265 1.42535C18.63 1.20372 18.4886 1.00327 18.3108 0.8359C18.133 0.668535 17.9225 0.537683 17.6916 0.45113C17.4608 0.364577 17.2145 0.324092 16.9673 0.332084L16.9774 0.328125Z" fill="#009EFF"/>
<path d="M67.1192 18.1051C67.1192 18.1051 62.8009 12.8561 62.492 12.4921C64.0221 12.1419 67.0762 10.5254 67.0762 6.52882C67.0762 1.76258 62.2915 0.328153 59.2742 0.328153H52.5584C52.3149 0.326841 52.0735 0.372259 51.8483 0.461779C51.6231 0.551298 51.4184 0.683138 51.2463 0.849669C51.0741 1.0162 50.9378 1.21411 50.8452 1.43195C50.7527 1.64978 50.7057 1.8832 50.7071 2.11871V19.2368C50.7087 19.6836 50.8826 20.1136 51.1947 20.4429C51.5068 20.7722 51.9347 20.9771 52.3947 21.0175C52.4479 21.0175 52.5031 21.0175 52.5563 21.0175C52.8 21.0172 53.0412 20.9706 53.2662 20.8801C53.4912 20.7897 53.6956 20.6573 53.8677 20.4905C54.0398 20.3237 54.1762 20.1257 54.2692 19.9079C54.3622 19.6901 54.4099 19.4567 54.4097 19.221V13.9305C54.4169 13.8758 54.4097 13.8202 54.3885 13.7689C54.3674 13.7177 54.3332 13.6725 54.289 13.6376C53.9414 13.3633 53.6644 13.0146 53.4798 12.6191C53.2952 12.2236 53.2081 11.792 53.2252 11.3584C53.2091 10.9494 53.2893 10.5422 53.4597 10.1675C53.6302 9.7929 53.8865 9.46064 54.2092 9.19587C54.2713 9.16117 54.3229 9.11128 54.3588 9.0512C54.3947 8.99113 54.4137 8.92297 54.4137 8.85358V3.90729H59.2742C59.3192 3.90729 63.3655 3.90729 63.3655 6.52487C63.3655 9.31062 60.0024 9.58564 59.9717 9.58564H56.175C55.6835 9.58564 55.2121 9.77449 54.8645 10.1107C54.517 10.4468 54.3217 10.9028 54.3217 11.3782C54.3217 11.8536 54.517 12.3095 54.8645 12.6457C55.2121 12.9818 55.6835 13.1707 56.175 13.1707H58.3005L64.2328 20.3389C64.5391 20.7104 64.9854 20.949 65.4735 21.0023C65.9617 21.0555 66.4517 20.919 66.8359 20.6228C67.22 20.3266 67.4667 19.8949 67.5218 19.4228C67.5768 18.9506 67.4357 18.4766 67.1294 18.1051H67.1192Z" fill="#009EFF"/>
<path d="M84.9534 21.4632C82.5531 21.4281 80.1961 20.829 78.0787 19.7159C77.8636 19.6061 77.6726 19.4557 77.5165 19.2733C77.3605 19.0909 77.2425 18.88 77.1693 18.6527C77.0961 18.4254 77.069 18.1861 77.0898 17.9485C77.1105 17.7109 77.1786 17.4797 77.2901 17.268C77.4016 17.0563 77.5544 16.8683 77.7397 16.7147C77.9251 16.5611 78.1393 16.445 78.3703 16.3729C78.6012 16.3009 78.8443 16.2743 79.0857 16.2947C79.3271 16.3151 79.562 16.3821 79.7771 16.4918C81.5201 17.3814 83.4046 17.8571 85.0828 17.8292C87.7842 17.7874 89.2077 17.0331 89.3149 15.5704C89.3553 15.0529 89.4564 13.6797 86.0797 12.8837L86.0069 12.8638L85.8289 12.816C85.2365 12.6628 84.64 12.5354 84.1143 12.418C83.7827 12.3463 83.4733 12.2807 83.1882 12.219C77.4397 10.8617 76.9302 7.51424 77.1405 5.63952C77.5004 2.39955 80.6547 0.176542 84.9878 0.108877C88.316 0.055143 90.2591 0.904941 91.3025 1.36467L91.3995 1.40646C91.8335 1.61 92.1696 1.97211 92.3365 2.4158C92.5034 2.85949 92.4879 3.34976 92.2933 3.78237C92.0987 4.21498 91.7403 4.55582 91.2944 4.73242C90.8484 4.90901 90.3501 4.90744 89.9053 4.72803L89.8021 4.68424C88.9105 4.28621 87.5598 3.7011 85.0485 3.74091C83.1255 3.77076 80.9782 4.50115 80.8023 6.03357C80.7356 6.63061 80.6001 7.87446 84.0375 8.68644C84.2801 8.74216 84.5733 8.80585 84.8826 8.87152C85.4528 8.99292 86.0958 9.13025 86.7793 9.30538L86.9693 9.35911C92.5217 10.6826 93.1223 13.9822 92.9827 15.8351C92.8594 17.4909 91.8484 21.3538 85.1293 21.4592L84.9534 21.4632Z" fill="#009EFF"/>
<path d="M42.2925 9.11791C42.2921 9.31573 42.2318 9.509 42.1192 9.67331C42.0066 9.83762 41.8468 9.96562 41.6599 10.0411C41.473 10.1167 41.2675 10.1363 41.0692 10.0976C40.8709 10.0589 40.6888 9.96361 40.5458 9.82373C40.4028 9.68385 40.3054 9.50566 40.2659 9.31166C40.2263 9.11766 40.2464 8.91654 40.3236 8.7337C40.4008 8.55085 40.5316 8.39448 40.6995 8.28433C40.8675 8.17417 41.065 8.11516 41.2672 8.11475C41.402 8.11421 41.5356 8.13978 41.6602 8.19C41.7849 8.24022 41.8981 8.31409 41.9935 8.40735C42.0888 8.50061 42.1643 8.61142 42.2156 8.73338C42.2669 8.85533 42.2931 8.98602 42.2925 9.11791Z" fill="#009EFF"/>
<path d="M37.2906 9.11791C37.2902 9.31582 37.2298 9.50916 37.1171 9.67352C37.0044 9.83788 36.8445 9.96587 36.6575 10.0413C36.4705 10.1168 36.2648 10.1363 36.0665 10.0975C35.8681 10.0586 35.686 9.96309 35.5431 9.823C35.4002 9.68291 35.303 9.50453 35.2636 9.3104C35.2243 9.11626 35.2447 8.91508 35.3222 8.73227C35.3997 8.54946 35.5309 8.39323 35.6991 8.28332C35.8673 8.17341 36.0651 8.11475 36.2674 8.11475C36.402 8.11448 36.5353 8.14025 36.6597 8.19059C36.7842 8.24093 36.8972 8.31485 36.9923 8.40808C37.0874 8.50132 37.1627 8.61203 37.2139 8.73385C37.2651 8.85567 37.2911 8.98619 37.2906 9.11791Z" fill="#009EFF"/>
<path d="M38.7669 14.3439C37.4505 14.3439 36.3818 13.3626 36.3818 12.1553C36.3777 12.0937 36.3866 12.0319 36.4081 11.9737C36.4295 11.9155 36.4629 11.8622 36.5063 11.8172C36.5498 11.7721 36.6022 11.7361 36.6605 11.7116C36.7187 11.687 36.7815 11.6743 36.845 11.6743C36.9085 11.6743 36.9713 11.687 37.0296 11.7116C37.0878 11.7361 37.1403 11.7721 37.1837 11.8172C37.2271 11.8622 37.2605 11.9155 37.2819 11.9737C37.3034 12.0319 37.3123 12.0937 37.3082 12.1553C37.3082 12.8653 37.9634 13.4423 38.7669 13.4423C39.5704 13.4423 40.2276 12.8728 40.2276 12.1553C40.2276 12.0355 40.2765 11.9206 40.3636 11.8359C40.4506 11.7512 40.5687 11.7036 40.6918 11.7036C40.8149 11.7036 40.9329 11.7512 41.02 11.8359C41.107 11.9206 41.1559 12.0355 41.1559 12.1553C41.1559 13.3626 40.0833 14.3439 38.7669 14.3439Z" fill="#009EFF"/>
</svg>
