<svg xmlns="http://www.w3.org/2000/svg" width="150" height="24" viewBox="0 0 150 24">
    <defs>
        <style>
            .cls-2{fill:#00aaf0}
        </style>
    </defs>
    <g id="lg_douzone_color" transform="translate(-88.763 -95.17)">
        <path id="패스_107" d="M138.3 98.17a10.144 10.144 0 1 0 10.144 10.143A10.144 10.144 0 0 0 138.3 98.17zm0 15.216a5.072 5.072 0 1 1 5.072-5.072 5.072 5.072 0 0 1-5.072 5.072z" class="cls-2" transform="translate(-14.828 -1.506)"/>
        <path id="패스_108" d="M237.232 98.17a10.144 10.144 0 1 0 10.144 10.143 10.143 10.143 0 0 0-10.144-10.143zm0 15.216a5.072 5.072 0 1 1 5.074-5.072 5.072 5.072 0 0 1-5.074 5.072z" class="cls-2" transform="translate(-52.064 -1.506)"/>
        <path id="패스_109" d="M102.266 99.266H94a.235.235 0 0 0-.17.07.252.252 0 0 0 0 .339l.925 1.188a.864.864 0 0 1 .217.66v16.423a.239.239 0 0 0 .24.24h6.948c6.811 0 10.784-4.054 10.784-9.515v-.054c-.002-5.459-3.919-9.351-10.678-9.351zm5.3 9.486c0 3.191-2.082 5-5.217 5h-2.135V103.7h2.135c3.136 0 5.217 1.835 5.217 5z" transform="translate(-1.882 -1.918)"/>
        <path id="패스_110" d="M214.259 113.995a.24.24 0 0 0-.239-.24h-9.244l9.266-10.432a.862.862 0 0 0 .218-.66v-3.157a.239.239 0 0 0-.239-.239h-15.928a.24.24 0 0 0-.24.239v3.952a.24.24 0 0 0 .24.239h8.924l-9.27 10.432a.858.858 0 0 0-.218.66v3.155a.239.239 0 0 0 .24.24h16.251a.239.239 0 0 0 .239-.24z" transform="translate(-40.938 -1.918)"/>
        <path id="패스_111" d="M181.831 99.506a.239.239 0 0 0-.24-.239h-6.057a.236.236 0 0 0-.169.07.258.258 0 0 0 0 .339l.926 1.188a.861.861 0 0 1 .217.66v8.392c0 2.648-1.378 3.893-3.486 3.893s-3.487-1.3-3.487-4.028V99.506a.239.239 0 0 0-.239-.239h-6.057a.238.238 0 0 0-.17.07.258.258 0 0 0 0 .339l.925 1.188a.861.861 0 0 1 .217.66v8.365c0 5.919 3.379 8.65 8.758 8.65s8.863-2.676 8.863-8.784z" transform="translate(-27.944 -1.918)"/>
        <path id="패스_112" d="M280.761 99.266h-6.07a.241.241 0 0 0-.171.07.244.244 0 0 0 0 .339c.092.115 1.074 1.378 1.074 1.378a.868.868 0 0 1 .217.66v7.553l-7.536-9.681a.735.735 0 0 0-.581-.318h-5.53a.235.235 0 0 0-.17.07.246.246 0 0 0 0 .339l.924 1.187a.866.866 0 0 1 .217.66v16.424a.239.239 0 0 0 .239.24h4.71a.239.239 0 0 0 .239-.24v-10.14l7.824 10.05c.229.292.488.331.976.331h3.636a.239.239 0 0 0 .239-.24V99.505a.239.239 0 0 0-.237-.239z" transform="translate(-65.177 -1.918)"/>
        <path id="패스_113" d="M312.4 99.266h-15.83a.239.239 0 0 0-.17.408l.925 1.188a.859.859 0 0 1 .218.66v16.424a.239.239 0 0 0 .24.24H312.4a.239.239 0 0 0 .239-.24v-3.952a.24.24 0 0 0-.239-.24h-9.616v-3.048h8.626a.239.239 0 0 0 .239-.241v-3.479a.239.239 0 0 0-.239-.239h-8.626V103.7h9.616a.239.239 0 0 0 .239-.239v-3.956a.239.239 0 0 0-.239-.239z" transform="translate(-78.125 -1.918)"/>
    </g>
</svg>
