<svg width="200" height="39" viewBox="0 0 200 39" fill="none" xmlns="http://www.w3.org/2000/svg">
<path d="M35.3825 12.7321C35.3183 5.69153 29.5882 0 22.522 0C16.2009 0 10.9462 4.56093 9.86703 10.5736C9.85418 10.5736 9.84133 10.5736 9.81564 10.5736C4.39391 10.5736 0 14.9676 0 20.3893C0 25.811 4.05987 29.858 9.19895 30.1792C11.0619 28.7403 12.4109 27.4041 13.8241 24.4877C15.0575 21.8925 15.2374 20.0552 15.3016 19.3486H10.2396C9.94411 19.824 9.39166 20.1066 8.77497 20.0424C8.0812 19.9653 7.50305 19.4 7.42596 18.6934C7.32318 17.7684 8.04265 16.9846 8.94199 16.9846C9.4816 16.9846 9.95696 17.2673 10.2268 17.6913H19.9139C19.2844 22.9331 16.959 27.1986 12.989 30.1921H19.2587C19.3101 29.8066 19.3486 29.4212 19.4 29.0229C19.4642 28.4962 19.5285 27.9823 19.5799 27.4555C19.6313 26.9288 19.6955 26.4149 19.7341 25.8881C19.9268 23.7939 20.0681 21.6997 20.1323 19.6056C20.1837 17.8197 20.2094 16.0211 20.1195 14.2352H15.0832C14.8005 14.6207 14.338 14.8648 13.8113 14.8519C13.0147 14.8262 12.3466 14.171 12.3209 13.3616C12.2952 12.5008 12.989 11.7942 13.8498 11.7942C14.4151 11.7942 14.9162 12.1025 15.1731 12.565H23.447V16.869L25.5797 19.8111L27.8024 17.8583C28.2521 17.46 28.676 17.036 29.0872 16.5992C29.6139 16.0211 30.1535 15.4172 30.616 14.8519L31.464 13.747C31.5668 13.6057 31.6567 13.4644 31.7466 13.3359L31.7723 13.3616L32.0036 13.0661L35.768 16.445L33.1984 17.8197C31.6567 18.8219 30.0636 19.7212 28.4576 20.582L26.9159 21.507C29.2285 25.9138 32.3505 28.6632 34.3676 30.1921H35.3697C40.0462 30.0122 43.7849 26.1707 43.7849 21.4556C43.7849 16.7405 40.0462 12.8991 35.3697 12.7321H35.3825ZM25.644 11.7942C22.7661 10.0597 19.7212 8.60795 16.4707 7.76L17.2288 6.411C19.6827 6.56517 25.5027 7.99126 27.584 8.83921L25.6311 11.7942H25.644Z" fill="#009944"/>
<path d="M23.8582 23.7682C23.9096 24.4749 23.9609 25.1815 24.038 25.8881C24.0766 26.4149 24.1408 26.9288 24.1922 27.4555C24.2436 27.9823 24.3078 28.4962 24.3721 29.0229C24.4235 29.4084 24.462 29.7938 24.5134 30.1921H30.3848C27.5711 28.2135 24.9245 25.0915 23.8582 23.7682Z" fill="#009944"/>
<path d="M19.2458 30.6032C19.1688 31.13 19.0917 31.6439 18.9889 32.1706C18.7962 33.2113 18.5392 34.2648 18.218 35.3055C17.884 36.3461 17.5114 37.3996 16.959 38.4403H26.8517C26.2992 37.3996 25.9266 36.3461 25.5926 35.3055C25.2714 34.2648 25.0145 33.2113 24.8217 32.1706C24.719 31.6439 24.6419 31.13 24.5648 30.6032C24.5519 30.4619 24.5262 30.3334 24.5134 30.1921H19.2972C19.2844 30.3334 19.2587 30.4619 19.2458 30.6032Z" fill="#009944"/>
<path d="M56.4142 19.7469C57.5705 19.7469 58.5726 19.5413 59.4077 19.1174C60.14 18.7448 60.7696 18.2694 61.2835 17.6913H65.5104V20.7619H69.1334V8.55656H65.5104V10.8691H61.8102C61.3477 10.1111 60.6796 9.46875 59.806 8.98054C58.8938 8.46663 57.7632 8.20967 56.4271 8.20967C55.3992 8.20967 54.4871 8.36385 53.7033 8.67219C52.9196 8.98054 52.2644 9.40451 51.7633 9.93127C51.2237 10.458 50.8255 11.0619 50.5685 11.7556C50.3116 12.4366 50.1831 13.1432 50.1831 13.8884C50.1831 14.6335 50.3116 15.3401 50.5557 16.0339C50.8126 16.7277 51.198 17.3572 51.712 17.8968C52.2516 18.475 52.9068 18.9247 53.6776 19.2587C54.4485 19.5927 55.3735 19.7597 56.4271 19.7597L56.4142 19.7469ZM55.078 10.9462C55.4121 10.7278 55.8489 10.625 56.3885 10.625C56.9281 10.625 57.4035 10.7407 57.7375 10.9462C58.0844 11.1646 58.3671 11.4601 58.5726 11.807C58.7653 12.1539 58.8938 12.5265 58.958 12.8991C59.0223 13.2974 59.0608 13.6442 59.0608 13.9526C59.0608 14.338 59.0223 14.7235 58.9324 15.1217C58.8424 15.52 58.7011 15.8926 58.5212 16.2266C58.3028 16.5607 58.0202 16.8433 57.6733 17.0617C57.3264 17.2673 56.9024 17.3829 56.3885 17.3829C55.8489 17.3829 55.4121 17.2673 55.078 17.036C54.744 16.8048 54.4614 16.4964 54.2686 16.1367C54.0502 15.777 53.8961 15.3915 53.819 15.0061C53.7419 14.6078 53.7033 14.2481 53.7033 13.9526C53.7033 13.6571 53.7419 13.2845 53.819 12.8862C53.8961 12.488 54.0502 12.1154 54.2686 11.7685C54.4614 11.4473 54.744 11.1646 55.078 10.9462ZM62.6196 13.4644C62.6196 13.3873 62.6196 13.3231 62.5939 13.246H65.4975V15.3658H62.4655C62.5811 14.9033 62.6325 14.4023 62.6325 13.8627C62.6325 13.7342 62.6325 13.5929 62.6325 13.4644H62.6196Z" fill="#009944"/>
<path d="M67.6816 22.8689C67.0906 22.4064 66.2684 22.0338 65.2534 21.7254C64.2384 21.4299 62.9408 21.2758 61.3991 21.2758C59.8574 21.2758 58.5855 21.4171 57.5833 21.7126C56.5812 22.0081 55.7847 22.3807 55.2194 22.8175C54.6155 23.28 54.1916 23.7811 53.9603 24.3207C53.729 24.8474 53.6134 25.3356 53.6134 25.7725C53.6134 26.1836 53.729 26.659 53.9603 27.1857C54.1916 27.7253 54.6155 28.2392 55.2065 28.7146C55.7718 29.19 56.5684 29.6011 57.5705 29.9351C58.5726 30.2692 59.8574 30.4362 61.3863 30.4362C62.9151 30.4362 64.2128 30.2692 65.2149 29.9351C66.217 29.6011 67.0392 29.2028 67.6302 28.7274C68.2341 28.2521 68.6581 27.7382 68.8893 27.1986C69.1206 26.6718 69.2362 26.1964 69.2362 25.7853C69.2362 25.3742 69.1206 24.886 68.9022 24.3592C68.6709 23.8196 68.2598 23.3186 67.6816 22.8817V22.8689ZM63.3905 27.8666C62.8766 28.0337 62.2342 28.1236 61.4634 28.1236C60.6925 28.1236 60.0373 28.0465 59.5233 27.8795C59.0094 27.7253 58.5983 27.5198 58.29 27.2756C57.9816 27.0444 57.7632 26.7874 57.6347 26.5305C57.5063 26.2607 57.442 26.0166 57.442 25.7853C57.442 25.5798 57.5063 25.3485 57.6219 25.1044C57.7504 24.8603 57.9688 24.6162 58.2771 24.3849C58.5983 24.1665 59.0094 23.9738 59.5233 23.8196C60.0373 23.6654 60.6925 23.5884 61.4634 23.5884C62.2342 23.5884 62.9023 23.6783 63.4162 23.8453C63.9301 24.0123 64.3541 24.2051 64.6624 24.4106C64.9451 24.6419 65.1378 24.886 65.2534 25.1429C65.369 25.3999 65.4204 25.6183 65.4204 25.7982C65.4204 26.0294 65.3562 26.2735 65.2406 26.5305C65.1249 26.7874 64.9194 27.0315 64.6239 27.2756C64.3284 27.5198 63.9173 27.7253 63.4034 27.8923L63.3905 27.8666Z" fill="#009944"/>
<path d="M90.6019 20.7747V8.55656H86.9789V18.1281C86.7604 18.1666 86.4906 18.2052 86.1952 18.218C85.8226 18.2437 85.3472 18.2566 84.7947 18.2566H77.0219C76.7136 18.2566 76.4823 18.1666 76.2896 17.9996C76.1097 17.8326 76.0198 17.5756 76.0198 17.2288V15.8155H83.3044V8.86491H72.3967V11.3445H79.6814V13.3231H72.3967V17.6142C72.3967 18.642 72.7308 19.4257 73.3732 19.9782C74.0155 20.5178 74.8892 20.7876 75.9812 20.7876H90.5891L90.6019 20.7747Z" fill="#009944"/>
<path d="M74.735 26.6076C74.735 27.6354 75.0562 28.4191 75.7114 28.9587C76.341 29.4855 77.2275 29.7553 78.3324 29.7553H90.6147V22.1623H74.7479V26.6204L74.735 26.6076ZM78.6536 27.0572C78.4608 26.9031 78.3581 26.6718 78.3581 26.3506V24.5905H87.0559V27.3142H79.3602C79.0904 27.3142 78.8591 27.2371 78.6536 27.0701V27.0572Z" fill="#009944"/>
<path d="M109.886 27.1215C108.833 27.1215 107.779 27.1215 106.713 27.1215H101.394C101.137 27.1215 100.906 27.0444 100.687 26.8645C100.482 26.6975 100.392 26.4791 100.392 26.1707V23.8582H96.7046V26.6204C96.7046 27.6482 97.0257 28.4319 97.681 28.9715C98.3105 29.4983 99.197 29.7681 100.302 29.7681H112.713V27.1472H112.52C111.813 27.1472 110.94 27.1472 109.899 27.1472L109.886 27.1215Z" fill="#009944"/>
<path d="M112.546 23.8196V8.55656H108.923V21.5199H105.235V23.8196" fill="#009944"/>
<path d="M98.4519 20.5049C98.606 20.7362 98.6831 21.0574 98.6831 21.4813V22.9074H102.152V20.1452H107.612V17.8326H93.1843V20.1837H97.6296C98.0536 20.1837 98.3234 20.2865 98.4647 20.4921L98.4519 20.5049Z" fill="#009944"/>
<path d="M95.2271 15.0832C95.6639 15.5842 96.3063 16.0082 97.1157 16.368C97.9251 16.7277 99.0043 16.9076 100.328 16.9076C101.651 16.9076 102.666 16.7277 103.488 16.368C104.31 16.0082 104.966 15.5842 105.428 15.0832C105.891 14.6078 106.212 14.1068 106.379 13.58C106.559 13.0661 106.636 12.655 106.636 12.3338C106.636 12.0126 106.559 11.6015 106.392 11.1004C106.225 10.5993 105.904 10.0983 105.441 9.62292C104.978 9.14756 104.336 8.73643 103.514 8.38954C102.692 8.04265 101.6 7.87563 100.276 7.87563C98.9529 7.87563 97.8737 8.04265 97.0643 8.38954C96.2421 8.73643 95.6125 9.14756 95.1885 9.62292C94.726 10.0983 94.4177 10.5993 94.2764 11.1133C94.135 11.6015 94.0579 12.0126 94.0579 12.3338C94.0579 12.655 94.135 13.0789 94.2892 13.58C94.4434 14.0939 94.7646 14.6078 95.2142 15.0832H95.2271ZM101.844 14.4408C101.484 14.6078 100.996 14.6978 100.379 14.6978C99.7623 14.6978 99.2869 14.6078 98.9272 14.4408C98.5803 14.2738 98.3105 14.0554 98.1178 13.7727C97.9122 13.5543 97.7838 13.3231 97.7195 13.0661C97.6553 12.7835 97.6167 12.5522 97.6167 12.3595C97.6167 12.2053 97.6553 11.9869 97.7195 11.7299C97.7838 11.473 97.8994 11.2289 98.0793 10.9976C98.2591 10.7664 98.5289 10.5608 98.8887 10.3938C99.2484 10.2268 99.7366 10.1368 100.353 10.1368C100.97 10.1368 101.458 10.2268 101.818 10.3938C102.178 10.5608 102.46 10.7664 102.653 10.9976C102.833 11.2289 102.961 11.473 103.013 11.7299C103.077 11.9869 103.116 12.2053 103.116 12.3595C103.116 12.5522 103.077 12.7835 103.013 13.0661C102.949 13.3231 102.833 13.5672 102.64 13.7984C102.46 14.0554 102.191 14.2738 101.831 14.4408H101.844Z" fill="#009944"/>
<path d="M116.503 19.0274C116.76 19.3615 117.03 19.7212 117.312 20.1195L117.402 20.248L117.544 20.1837C117.878 20.0296 118.366 19.7726 119.021 19.4C119.663 19.0403 120.37 18.5778 121.115 18.0382C121.847 17.5243 122.593 16.9461 123.325 16.3294C123.993 15.7513 124.597 15.1346 125.098 14.505C125.65 15.1731 126.254 15.7898 126.884 16.3423C127.565 16.9461 128.271 17.4857 128.952 17.9482C129.607 18.4236 130.276 18.8476 130.918 19.2073C131.56 19.567 132.113 19.8882 132.601 20.1709L132.755 20.2608L132.858 20.1195C133.102 19.7726 133.359 19.4257 133.616 19.066C133.886 18.7062 134.143 18.3337 134.387 17.9739L134.502 17.8069L134.323 17.7041C133.899 17.46 133.269 17.1131 132.447 16.6506C131.637 16.1881 130.815 15.6228 129.993 14.9804C129.171 14.3637 128.451 13.6699 127.847 12.9248C127.256 12.2053 126.961 11.473 126.961 10.7407V8.47948H123.132V10.7407C123.132 11.4601 122.862 12.1668 122.323 12.8477C121.77 13.5543 121.102 14.2224 120.319 14.8262C119.535 15.4558 118.713 16.0082 117.878 16.4707C117.004 16.959 116.297 17.3444 115.732 17.6399L115.539 17.7427L115.668 17.9225C115.963 18.3208 116.233 18.6805 116.477 19.0146L116.503 19.0274Z" fill="#009944"/>
<path d="M126.807 19.6056H123.248V24.3721H114.91V26.9159H135.171V24.3721H126.807V19.6056Z" fill="#009944"/>
<path d="M155.136 17.7684H153.119V11.9098H155.136V9.34027H138.344V11.9098H140.31V14.5821C140.31 15.0703 140.374 15.6228 140.502 16.2009C140.618 16.7148 140.849 17.2288 141.183 17.7684H138.331V20.3122H155.123V17.7684H155.136ZM149.598 11.9098V17.7684H145.102C144.819 17.7298 144.601 17.6142 144.447 17.4086C144.28 17.1902 144.151 16.9204 144.061 16.5864C143.946 16.3166 143.881 16.0596 143.868 15.8027C143.856 15.5329 143.843 15.3401 143.843 15.2245V11.8841H149.586L149.598 11.9098Z" fill="#009944"/>
<path d="M156.896 24.1537H136.635V26.8003H156.896V24.1537Z" fill="#009944"/>
<path d="M163.924 21.3914H176.502V18.8476H164.951C164.643 18.8476 164.386 18.7576 164.181 18.5778C163.975 18.4107 163.885 18.1538 163.885 17.8197V16.535H176.039V13.9911H163.885V11.9098H176.502V9.34027H160.352V18.3208C160.352 19.3101 160.686 20.0809 161.341 20.6077C161.984 21.1216 162.857 21.3914 163.924 21.3914Z" fill="#009944"/>
<path d="M178.634 24.4235H158.373V27.0444H178.634V24.4235Z" fill="#009944"/>
<path d="M195.066 14.8391H196.904V20.2994H200V8.55656H196.904V12.2438H195.066V8.55656H191.97V17.6399C191.765 17.7041 191.495 17.7427 191.161 17.7684C190.75 17.7941 190.223 17.8197 189.593 17.8454H185.598C185.289 17.8454 185.058 17.7555 184.865 17.5885C184.686 17.4215 184.596 17.1645 184.596 16.8176V15.7641H189.966V8.86491H181.024V11.2931H186.33V13.3744H181.024V17.1388C181.024 18.1666 181.358 18.9503 182 19.5028C182.643 20.0424 183.529 20.3122 184.634 20.3122H195.066V14.8391Z" fill="#009944"/>
<path d="M196.441 23.3057H187.769V21.5841H184.146V26.6333C184.146 27.6611 184.48 28.4448 185.135 28.9715C185.778 29.4855 186.651 29.7553 187.743 29.7553H200V21.5841H196.441V23.3057ZM196.441 27.5198H188.771C188.476 27.5198 188.244 27.4427 188.052 27.2628C187.859 27.0958 187.769 26.8645 187.769 26.5562V25.7211H196.441V27.5198Z" fill="#009944"/>
</svg>
